<svg xmlns="http://www.w3.org/2000/svg" width="539.518" height="525.51" viewBox="0 0 539.518 525.51">
  <g id="contact-us-illustration" transform="translate(-240.421 -1306.5)">
    <g id="phone-actions-smile" transform="translate(322.173 1406)">
      <path id="Path_2118" data-name="Path 2118" d="M15.615,4.5A.615.615,0,1,1,15,5.115a.615.615,0,0,1,.615-.615" transform="translate(20.678 5.343)" fill="none" stroke="#323234" stroke-linecap="round" stroke-linejoin="round" stroke-width="2"/>
      <path id="Path_2119" data-name="Path 2119" d="M20.115,4.5a.615.615,0,1,1-.615.615.615.615,0,0,1,.615-.615" transform="translate(27.251 5.343)" fill="none" stroke="#323234" stroke-linecap="round" stroke-linejoin="round" stroke-width="2"/>
      <path id="Path_2120" data-name="Path 2120" d="M25.343,8A4.921,4.921,0,0,1,15.5,8Z" transform="translate(21.408 10.455)" fill="none" stroke="#323234" stroke-linecap="round" stroke-linejoin="round" stroke-width="2"/>
      <path id="Path_2121" data-name="Path 2121" d="M27.56.5A14.91,14.91,0,0,0,14.883,23.284L10.5,32.489,19.706,28.1A14.922,14.922,0,1,0,27.56.5Z" transform="translate(14.105 -0.5)" fill="none" stroke="#323234" stroke-linecap="round" stroke-linejoin="round" stroke-width="2"/>
      <path id="Path_2122" data-name="Path 2122" d="M20.46,24.988c-1.567-1.688-3.073-3.411-4.5-5.15L17.7,18.1a4.921,4.921,0,0,0,0-6.959L12.48,5.919a4.921,4.921,0,0,0-6.959,0L2.659,8.784a7.367,7.367,0,0,0-.93,9.282,114.319,114.319,0,0,0,31.99,31.989,7.382,7.382,0,0,0,9.287-.93l2.864-2.862a4.921,4.921,0,0,0,0-6.959L40.65,34.08a4.921,4.921,0,0,0-6.961,0l-1.74,1.74c-1.737-1.425-3.462-2.931-5.153-4.5" transform="translate(-0.501 5.311)" fill="none" stroke="#323234" stroke-linecap="round" stroke-linejoin="round" stroke-width="2"/>
    </g>
    <g id="Group_2303" data-name="Group 2303" transform="translate(615.784 1308)">
      <g id="Group_2304" data-name="Group 2304" transform="translate(0 0)">
        <path id="Path_7940" data-name="Path 7940" d="M168.23,205.359h6.515c12.6,0,22.8-6.952,22.8-19.546V171.674" transform="translate(-67.222 -68.535)" fill="none" stroke="#323234" stroke-miterlimit="10" stroke-width="3"/>
        <path id="Path_7941" data-name="Path 7941" d="M205.082,89.232a26.062,26.062,0,0,1,8.692,50.638,6.516,6.516,0,0,1-8.692-6.137Z" transform="translate(-81.269 -37.108)" fill="none" stroke="#323234" stroke-miterlimit="10" stroke-width="3"/>
        <path id="Path_7942" data-name="Path 7942" d="M31.083,89.232a26.062,26.062,0,0,0-8.692,50.638,6.516,6.516,0,0,0,8.692-6.137Z" transform="translate(-5 -37.108)" fill="none" stroke="#323234" stroke-miterlimit="10" stroke-width="3"/>
        <path id="Path_7943" data-name="Path 7943" d="M144.879,66.9V53.866a48.866,48.866,0,1,0-97.731,0V66.9" transform="translate(-21.067 -5)" fill="none" stroke="#323234" stroke-miterlimit="10" stroke-width="3"/>
        <path id="Path_7944" data-name="Path 7944" d="M116.836,215.579H142.9a3.258,3.258,0,0,1,3.257,3.257v6.515a3.258,3.258,0,0,1-3.257,3.258H116.836a6.515,6.515,0,1,1,0-13.031Z" transform="translate(-45.148 -85.271)" fill="none" stroke="#323234" stroke-miterlimit="10" stroke-width="3"/>
        <path id="Path_7945" data-name="Path 7945" d="M69.461,111.662l9.334-10.819c2.043-2.393,4-4.392,4.572-7.07.395-1.856-.106-2.856-1.5-2.856-2.106,0-3.016,1.928-3.517,4.283l-.28,1.322H72.679l.3-1.428c1.085-5.106,4.088-8.819,9.765-8.819,5.07,0,7.076,2.821,6.059,7.605-.752,3.536-3.1,6-5.689,8.962L75.772,111.2H84.34l-.926,4.356H68.634Z" transform="translate(-29.257 -35.981)" fill="#fe8e14"/>
        <path id="Path_7946" data-name="Path 7946" d="M101.161,107.676l2.756-12.962c1.077-5.071,4.2-8.5,9.553-8.5,5.284,0,6.983,3.428,5.905,8.5l-2.755,12.962c-1.04,4.891-4.418,8.355-9.488,8.355-5.176,0-7.019-3.428-5.972-8.355m9.877-.108,2.71-12.747c.326-1.535.654-3.748-1.31-3.748-2.035,0-2.612,2.214-2.938,3.748l-2.71,12.747c-.3,1.429-.517,3.606,1.375,3.606,1.856,0,2.569-2.178,2.873-3.606" transform="translate(-41.548 -35.959)" fill="#fe8e14"/>
        <path id="Path_7947" data-name="Path 7947" d="M143.89,86.852h3.178l-14.823,28.922H129.1Z" transform="translate(-52.307 -36.201)" fill="#fe8e14"/>
        <path id="Path_7948" data-name="Path 7948" d="M155.639,107.383h5.355c-.675,3.178-.631,4.82,1.383,4.749,2.121-.071,2.73-2.428,3.534-6.213.653-3.071.794-5.249-1.348-5.249-1.285,0-2.3.893-3.018,2.607H156.8l3.884-16.425h13.281L172.953,91.6h-8.782l-1.645,6.392a6.727,6.727,0,0,1,3.937-1.392c4.546-.394,5.973,3.142,4.713,9.069-1.305,6.142-3.425,10.57-9.994,10.57-6.105,0-6.682-3.5-5.544-8.855" transform="translate(-62.242 -36.201)" fill="#fe8e14"/>
      </g>
    </g>
    <g id="Group_78" data-name="Group 78" transform="translate(240.921 1488.263)">
      <g id="Layer_3" data-name="Layer 3" transform="translate(11.824 35.173)">
        <path id="Path_133" data-name="Path 133" d="M718.374,592.1a514.648,514.648,0,0,0-68.983,38.734l61.719-.652,5.553-20.158c1.678-6.091,3.371-12.41,2.382-18.651" transform="translate(-372.958 -347.966)" fill="#fff" stroke="#000" stroke-miterlimit="10" stroke-width="1"/>
        <g id="Layer_5" data-name="Layer 5" transform="translate(249.88 249.956)">
          <path id="Path_134" data-name="Path 134" d="M669.707,620.188a3.787,3.787,0,0,1,2.915,2.873,2.589,2.589,0,0,1-1.064,2.478,5.573,5.573,0,0,1-2.645.957,47.557,47.557,0,0,1-7.236.02c-8.268-.088-16.238,2.983-23.689,6.566a46.856,46.856,0,0,1-7.287,3.08c-4.893,1.4-13.584,1.039-18.653.567l-.211.058c1.542-7.179,3.763-14.192,5.981-21.192.778-2.458,1.215-4.036,2.841-6.037l.556-.33c5.539-1.985,23.944-7.419,25.933-7.857,8.773-1.934,19.452.186,27.815,3.471,3.46,1.359,7.977,4.572,7.977,5.689a1.27,1.27,0,0,1-1.085,1.131,3.829,3.829,0,0,1-1.677-.192,63.039,63.039,0,0,0-25.959-1.295,62.392,62.392,0,0,1,21.768.35,7.816,7.816,0,0,1,3.507,2.292,2.284,2.284,0,0,1,.015,2.771c-.885.95-2.433.573-3.679.206-8.192-2.408-16.959-1.094-25.394.238,0,0,10.618-3.271,25.105-.321.909.185.915,1.165,1.191,2.05a2.161,2.161,0,0,1-.725,2.477,2.86,2.86,0,0,1-1.37.318c-2.931.134-5.825-.6-8.743-.9-7.714-.794-15.391,1.473-22.738,3.954C643.157,623.609,657.231,617.475,669.707,620.188Z" transform="translate(-611.836 -600.633)" fill="#fff" stroke="#000" stroke-miterlimit="10" stroke-width="1"/>
        </g>
        <path id="Path_135" data-name="Path 135" d="M570.3,381.892c16.684,7.067,28.175,22.788,36.719,38.767s14.588,26.157,23.587,41.884c5.836,10.2,10.97,20.054,20.967,26.113.361.219,18.131,9.2,18.421,9.51l-25.206,39.292c-24.711-9.885-51.106-30.489-62.508-50.993l.882-6.562c-3.179,27.15-12.384,53.724-12.384,53.724-.037.6-6.865,3.284-9.777,5.607-1.516,1.209-2.123,3.2-2.649,5.067l-7.379,26.163a457.755,457.755,0,0,1-62.06-4.1c-24.1-3.251-49.607-9.337-66.029-27.274-10.99-12-16.614-28.164-18.456-44.335s-.174-30.4,1.813-46.553c1.993-16.2,4.485-25.806,12.98-39.745,4.668-7.66,10.986-14.19,17.732-20.1a165.779,165.779,0,0,1,52.388-31l-.217.478a71.686,71.686,0,0,0,24.258,29.35c.908.634,2.492,3.373,3.44,2.8.582-.349,1.44-2.1,1.925-2.577,7.665-7.489,12.844-19.5,18.066-29.713C536.817,357.687,555.748,375.727,570.3,381.892Z" transform="translate(-300.958 -279.401)" fill="#fe8e14" stroke="#000" stroke-miterlimit="10" stroke-width="1"/>
        <path id="Path_136" data-name="Path 136" d="M659.97,494.835s4.818,14.946,4.225,23.162c-.747,10.343,8.007,27.686,8.007,27.686L656.188,527.5Z" transform="translate(-374.95 -319.681)" fill="#fc751a"/>
        <path id="Path_137" data-name="Path 137" d="M496.458,471.622s-2.878,53.969,6.854,76.461C503.65,548.865,467.262,530.533,496.458,471.622Z" transform="translate(-324.828 -312.88)" fill="#fc751a"/>
        <path id="Path_138" data-name="Path 138" d="M496.345,471.622c-5.986,8.358-8.5,18.677-10.173,28.821-1.782,10.825-2.657,20.248,1.839,30.255,4,8.909,11.828,15.542,20.124,20.7a106.94,106.94,0,0,0,79.582,13.2l-4.871,11.3" transform="translate(-324.715 -312.88)" fill="none" stroke="#000" stroke-miterlimit="10" stroke-width="1"/>
        <path id="Path_139" data-name="Path 139" d="M654.141,494.835c-1.336,27.908-5.9,53.477-15.879,79.576" transform="translate(-369.698 -319.681)" fill="none" stroke="#000" stroke-miterlimit="10" stroke-width="1"/>
        <g id="Messages-Chat-Smileys_Messages-Speech-Bubbles_messages-bubble-typing-1" data-name="Messages-Chat-Smileys / Messages-Speech-Bubbles / messages-bubble-typing-1" transform="translate(384.341 0)">
          <g id="Group_114" data-name="Group 114">
            <g id="messages-bubble-typing_1" data-name="messages-bubble-typing 1">
              <path id="Shape_448" data-name="Shape 448" d="M856.435,216.44c-19.764,0-35.788,13.235-35.788,29.563a27.193,27.193,0,0,0,10.581,20.978L823.759,284.9l19.829-11.331a42.35,42.35,0,0,0,12.847,2c19.764,0,35.786-13.235,35.786-29.564S876.2,216.44,856.435,216.44Z" transform="translate(-820.647 -216.44)" fill="#6ac4bb" stroke="#323234" stroke-miterlimit="10" stroke-width="1"/>
              <path id="Oval_81" data-name="Oval 81" d="M840.968,257.069A4.668,4.668,0,1,0,836.3,252.4,4.668,4.668,0,0,0,840.968,257.069Z" transform="translate(-823.846 -222.835)" fill="#fff" stroke="#323234" stroke-miterlimit="10" stroke-width="1"/>
              <path id="Oval_82" data-name="Oval 82" d="M864.435,257.069a4.668,4.668,0,1,0-4.668-4.668A4.668,4.668,0,0,0,864.435,257.069Z" transform="translate(-828.641 -222.835)" fill="#fff" stroke="#323234" stroke-miterlimit="10" stroke-width="1"/>
              <path id="Oval_83" data-name="Oval 83" d="M887.9,257.069a4.668,4.668,0,1,0-4.668-4.668A4.668,4.668,0,0,0,887.9,257.069Z" transform="translate(-833.437 -222.835)" fill="#fff" stroke="#323234" stroke-miterlimit="10" stroke-width="1"/>
            </g>
          </g>
        </g>
        <g id="Emails_Email-Actions_email-action-unread" data-name="Emails / Email-Actions / email-action-unread" transform="translate(0 7.921)">
          <g id="Group_82" data-name="Group 82">
            <g id="email-action-unread">
              <path id="Rectangle-path_27" data-name="Rectangle-path 27" d="M253.1,172.561a5.833,5.833,0,0,1,5.834-5.833h55.415a5.833,5.833,0,0,1,5.834,5.833v35a5.833,5.833,0,0,1-5.834,5.833H258.938a5.833,5.833,0,0,1-5.834-5.833Z" transform="translate(-253.104 -166.728)" fill="#fe8e14" stroke="#000" stroke-miterlimit="10" stroke-width="1"/>
              <path id="Shape_381" data-name="Shape 381" d="M319.18,169.129l-31.823,26.01-31.823-26.01" transform="translate(-253.816 -167.431)" fill="#fe8e14" stroke="#000" stroke-miterlimit="10" stroke-width="1"/>
            </g>
          </g>
        </g>
      </g>
      <g id="Layer_2" data-name="Layer 2" transform="translate(115.645 0)">
        <path id="Path_140" data-name="Path 140" d="M523.166,301.881c6.724-12.087,4.62-27.3,9.867-40.1,6.345-15.478,24.2-25.3,40.674-22.36,8.633,1.539,17.649,6.1,25.679,2.571a13.9,13.9,0,0,0,1.436-24.731c-6.776-3.966-15.445-1.627-23.087-3.425-9.345-2.2-16.142-10.271-24.944-14.1a29.332,29.332,0,0,0-40.906,24.071c-.435,4.5.165,9.123-.963,13.5-1.817,7.05-8.011,13.308-6.6,20.451,1.065,5.4,6.324,9.391,6.833,14.871.216,2.316-.464,4.645-.255,6.961.793,8.818,13.613,13.957,12.195,22.7" transform="translate(-434.216 -197.354)" stroke="#000" stroke-miterlimit="10" stroke-width="1"/>
        <g id="Layer_7" data-name="Layer 7" transform="translate(99.651 89.194)">
          <path id="Path_141" data-name="Path 141" d="M546.2,323.508s2.747,27.064,30.753,22.636c-1.483-1.174-3.385-7.784-3.385-7.784S559.359,337.511,546.2,323.508Z" transform="translate(-546.197 -323.508)" fill="#ddd"/>
        </g>
        <path id="Path_142" data-name="Path 142" d="M547.637,309.211c5.994,5.53,12.267,11.225,20.062,13.622s17.569.452,21.684-6.589c1.729-2.96,2.284-6.435,3.356-9.691s2.941-6.571,6.123-7.847c.414-.165.9-.348,1.033-.772a1.386,1.386,0,0,0-.067-.795c-2.232-7.767-7.163-9.923-6.7-23.3" transform="translate(-446.968 -219.762)" fill="none" stroke="#000" stroke-miterlimit="10" stroke-width="1"/>
        <path id="Path_143" data-name="Path 143" d="M583.32,277.407c5.74-2.092,6.372-2.092,11.479-1.047" transform="translate(-457.422 -220.3)" fill="none" stroke="#000" stroke-miterlimit="10" stroke-width="2"/>
        <path id="Path_144" data-name="Path 144" d="M561.847,199.73c-2.322,1.495-20.727,25.7-20.727,41.121" transform="translate(-445.058 -198.05)" fill="none" stroke="#fe8e14" stroke-miterlimit="10" stroke-width="1"/>
        <path id="Path_145" data-name="Path 145" d="M574.826,206.664a74.431,74.431,0,0,0-20.5,35.539" transform="translate(-448.927 -200.082)" fill="none" stroke="#fe8e14" stroke-miterlimit="10" stroke-width="1"/>
        <path id="Path_146" data-name="Path 146" d="M520.2,345.77c-2.859,3.7-2.645,9.819-.714,14.078s5.312,7.66,8.624,10.961l8.93,8.9a4.479,4.479,0,0,1,.957,6.762l-5.654,10.077c-12.114-7.92-38.473-31.992-38.106-32.865.252-.6,4.858-3.041,5.433-3.34,7.48-3.884,16.8-7.017,20.53-14.576Z" transform="translate(-431.321 -240.836)" fill="#f5f5f5" stroke="#000" stroke-miterlimit="10" stroke-width="1"/>
        <path id="Path_147" data-name="Path 147" d="M579.567,347.226c.448,5.309,14.131,16.54,14.107,17.216-.024.631-10.993,25.229-19.6,32.535-.362.306-1.507,1.465-1.977,1.4-.378-.051-5.149-6.049-7.27-8.141a2.43,2.43,0,0,1-.391-3.759c6.5-10.8,17.977-27.051,19.411-32.1A15.483,15.483,0,0,1,579.567,347.226Z" transform="translate(-451.682 -241.263)" fill="#f5f5f5" stroke="#000" stroke-miterlimit="10" stroke-width="1"/>
        <path id="Path_148" data-name="Path 148" d="M627.142,263.441a251.529,251.529,0,0,0-8.071,25.1" transform="translate(-467.896 -216.716)" fill="none" stroke="#000" stroke-miterlimit="10" stroke-width="1"/>
        <ellipse id="Ellipse_24" data-name="Ellipse 24" cx="3.254" cy="2.207" rx="3.254" ry="2.207" transform="translate(149.765 64.539) rotate(-73.565)"/>
        <path id="Path_149" data-name="Path 149" d="M619.418,274.525a6.233,6.233,0,0,1,4.823-1.5" transform="translate(-467.998 -219.51)" fill="none" stroke="#000" stroke-miterlimit="10" stroke-width="2"/>
        <circle id="Ellipse_25" data-name="Ellipse 25" cx="3.942" cy="3.942" r="3.942" transform="translate(128.234 62.042)" stroke="#000" stroke-miterlimit="10" stroke-width="1"/>
        <path id="Path_150" data-name="Path 150" d="M593.523,315.375l11.741,4.082s-2.33,10.757-5.818,11.779C594.971,332.548,589.909,325.665,593.523,315.375Z" transform="translate(-460.051 -231.931)" fill="#f5f5f5" stroke="#000" stroke-miterlimit="10" stroke-width="1"/>
        <path id="Path_151" data-name="Path 151" d="M467.791,373.066l5.284,5.1s-81.843,28.363-54.249,157.883c-1.895-2.06-4.448-7.99-6.507-11.944,0,0-16.2-32.423.455-94.617C418.869,406.722,446.709,383.978,467.791,373.066Z" transform="translate(-405.253 -248.833)" fill="#fc751a"/>
        <g id="Group_79" data-name="Group 79" transform="translate(103.492 59.272)">
          <path id="Path_162" data-name="Path 162" d="M548.005,278.125c2.684,7.559,6.322,14.888,11.647,20.887s12.461,10.606,20.377,11.9c.35.057.781.183.834.533" transform="translate(-548.005 -278.125)" fill="none" stroke="#232323" stroke-miterlimit="10" stroke-width="1"/>
          <circle id="Ellipse_31" data-name="Ellipse 31" cx="4.231" cy="4.231" r="4.231" transform="translate(26.774 29.091)" fill="#323234" stroke="#000" stroke-miterlimit="10" stroke-width="2"/>
        </g>
        <circle id="Ellipse_23" data-name="Ellipse 23" cx="16.827" cy="16.827" r="16.827" transform="translate(84.949 40.404)" stroke="#fe8e14" stroke-miterlimit="10" stroke-width="2"/>
      </g>
      <g id="Layer_4" data-name="Layer 4" transform="translate(347.997 177.405)">
        <path id="Path_152" data-name="Path 152" d="M765.415,456.383c-6.775,13.056-8.951,27.925-11.422,42.424a833.58,833.58,0,0,1-20.107,89.536s109.8-1.349,144.138-6.109c1.585-.22,3.421.294,4.564-.825a5.32,5.32,0,0,0,1.19-2.587q16.552-65.062,31.371-130.55-74.881,4.792-149.857,7.9" transform="translate(-733.886 -448.272)" fill="#fff" stroke="#000" stroke-miterlimit="10" stroke-width="1"/>
      </g>
      <g id="Layer_8" data-name="Layer 8" transform="translate(351.435 142.492)">
        <path id="Path_153" data-name="Path 153" d="M840.84,473.337c-22.283,10.714-37.045-11.737-54.3-5.2-11.925,4.515-16.281,19.362-15.744,32.1.286,6.8,1.488,13.671.262,20.369-1.236,6.749-4.838,12.785-8.071,18.839a198.275,198.275,0,0,0-9.9,21.566c-1.3,3.34-2.525,6.909-1.9,10.438,1.281,7.285,9.587,10.972,16.928,11.872a54.04,54.04,0,0,0,26.617-3.493c8.286-3.337,15.77-8.745,24.461-10.808,12.082-2.868,24.675,1.114,36.161,5.834,8,3.286,17.688,6.806,24.69,1.734a20.624,20.624,0,0,0,5.259-6.279c4.346-7.21,7.317-15.91,5.072-24.022-1.718-6.209-6.3-11.39-7.624-17.7-2.256-10.777,5.395-20.793,11.733-29.8s11.765-21.378,5.527-30.45c-3.444-5.01-9.755-7.452-15.832-7.62s-11.874,2.149-17.78,3.591A133.879,133.879,0,0,0,840.84,473.337Z" transform="translate(-742.342 -417.003)" fill="#fff1ea"/>
        <path id="Path_154" data-name="Path 154" d="M738.749,409.39a85.51,85.51,0,0,0,11.877,15.561" transform="translate(-738.749 -401.967)" fill="none" stroke="#000" stroke-miterlimit="10" stroke-width="1"/>
        <path id="Path_155" data-name="Path 155" d="M763.855,402.057a94.8,94.8,0,0,0,5.928,15.582" transform="translate(-746.104 -399.819)" fill="none" stroke="#000" stroke-miterlimit="10" stroke-width="1"/>
        <path id="Path_156" data-name="Path 156" d="M788.8,398.891,787.8,421.12" transform="translate(-753.12 -398.891)" fill="none" stroke="#000" stroke-miterlimit="10" stroke-width="1"/>
        <path id="Path_157" data-name="Path 157" d="M857.241,531.249a12.336,12.336,0,0,0-4.18,8.453,10.238,10.238,0,0,0,3.792,8.507,8.767,8.767,0,0,0,9.125.962c3.137-1.611,4.84-5.062,5.99-8.4.916-2.658,1.6-5.678.356-8.2-1.647-3.35-6-4.4-9.71-4A8.332,8.332,0,0,0,857.241,531.249Z" transform="translate(-772.236 -436.862)" fill="none" stroke="#000" stroke-miterlimit="10" stroke-width="1"/>
        <path id="Path_158" data-name="Path 158" d="M1000.18,463.974q-3.327,15.292-7.7,30.33" transform="translate(-813.086 -417.958)" fill="none" stroke="#000" stroke-miterlimit="10" stroke-width="1"/>
      </g>
      <g id="Layer_9" data-name="Layer 9" transform="translate(0 175.38)">
        <g id="Group_77" data-name="Group 77" transform="translate(0 0)">
          <ellipse id="Ellipse_26" data-name="Ellipse 26" cx="24.585" cy="55.221" rx="24.585" ry="55.221" transform="translate(20.197 18.483) rotate(-22.08)" fill="#6ac4bb" stroke="#323234" stroke-miterlimit="10" stroke-width="1"/>
          <ellipse id="Ellipse_27" data-name="Ellipse 27" cx="25.962" cy="16.347" rx="25.962" ry="16.347" transform="matrix(0.593, -0.805, 0.805, 0.593, 94.801, 78.315)" fill="#6ac4bb" stroke="#323234" stroke-miterlimit="10" stroke-width="1"/>
          <ellipse id="Ellipse_28" data-name="Ellipse 28" cx="20.816" cy="20.556" rx="20.816" ry="20.556" transform="translate(19.131 110.377)" fill="#6ac4bb" stroke="#323234" stroke-miterlimit="10" stroke-width="1"/>
          <path id="Path_159" data-name="Path 159" d="M315.645,524.488c4.442,16,20.756,26.042,27.835,41.089,2.922,6.211,4.156,13.05,5.185,19.824a395.752,395.752,0,0,1,4.408,51.532" transform="translate(-263.355 -468.576)" fill="none" stroke="#323234" stroke-miterlimit="10" stroke-width="1"/>
          <ellipse id="Ellipse_29" data-name="Ellipse 29" cx="6.707" cy="6.623" rx="6.707" ry="6.623" transform="translate(115.773 138.062)" fill="#323234"/>
          <ellipse id="Ellipse_30" data-name="Ellipse 30" cx="5.937" cy="5.863" rx="5.937" ry="5.863" transform="translate(0 74.984)" fill="none" stroke="#323234" stroke-miterlimit="10" stroke-width="1"/>
          <path id="Path_160" data-name="Path 160" d="M400.045,543.81c-10.518,7.82-15.538,20.816-19.008,33.357s-6.066,25.709-13.53,36.42" transform="translate(-278.55 -474.237)" fill="none" stroke="#323234" stroke-miterlimit="10" stroke-width="1"/>
          <path id="Path_161" data-name="Path 161" d="M297.954,631.348c-2.762,3.345-2.455,8.269-1.01,12.342s3.859,7.79,4.994,11.958.638,9.235-2.8,11.895" transform="translate(-257.559 -499.883)" fill="none" stroke="#323234" stroke-miterlimit="10" stroke-width="1"/>
        </g>
      </g>
    </g>
  </g>
</svg>
